<svg width="512" height="512" viewBox="0 0 512 512" fill="none" xmlns="http://www.w3.org/2000/svg" xmlns:xlink="http://www.w3.org/1999/xlink" class=""><rect id="«r81»" width="512" height="512" x="0" y="0" rx="128" fill="url(#«r82»)" stroke="#FFFFFF" stroke-width="0" stroke-opacity="100%" paint-order="stroke"></rect><clipPath id="clip"><use xlink:href="#«r81»"></use></clipPath><defs><radialGradient id="«r82»" cx="50%" cy="50%" r="100%" fx="50%" fy="100%" gradientUnits="objectBoundingBox"><stop stop-color="#ffffff"></stop><stop offset="1" stop-color="#666666"></stop></radialGradient><radialGradient id="«r83»" cx="0" cy="0" r="1" gradientUnits="userSpaceOnUse" gradientTransform="translate(256) rotate(90) scale(512)"><stop stop-color="white"></stop><stop offset="1" stop-color="white" stop-opacity="0"></stop></radialGradient></defs><svg xmlns="http://www.w3.org/2000/svg" fill="none" viewBox="0 0 16 16" width="352" height="352" x="80" y="80" alignment-baseline="middle" style="color: rgb(35, 35, 35);"><path stroke="currentColor" stroke-linecap="round" stroke-linejoin="round" stroke-width="1.5" d="M12 11.626C13.466 10.314 14.25 8.59 14.25 8 14.25 7 12 2.75 8 2.75c-1.406 0-2.596.525-3.548 1.25M2.25 6.75s-.5.75-.5 1.25C1.75 9 4 13.25 8 13.25c.347 0 .93-.032 1.25-.09M1.75 1.75l12.5 12.5M6.637 6.21a2.25 2.25 0 0 1 3.165 3.138"></path></svg></svg>